<svg xmlns="http://www.w3.org/2000/svg" xmlns:xlink="http://www.w3.org/1999/xlink" width="1176" height="233" viewBox="0 0 1176 233">
  <defs>
    <clipPath id="clip-path">
      <rect id="Rectángulo_77" data-name="Rectángulo 77" width="1176" height="233" transform="translate(120 17313)" fill="#fff"/>
    </clipPath>
  </defs>
  <g id="Enmascarar_grupo_22" data-name="Enmascarar grupo 22" transform="translate(-120 -17313)" clip-path="url(#clip-path)">
    <path id="Trazado_17" data-name="Trazado 17" d="M-450.907-5.064l-33.76-3.376c-14.77-1.688-22.788-7.174-22.788-21.944,0-9.706,7.6-37.558,20.256-74.272,16.88-.844,35.448-.844,54.016-.844,16.458,0,32.494,0,48.108.844,15.192,33.76,32.494,76.8,32.494,84.822,0,8.44-6.33,10.972-21.1,12.238l-29.54,2.532V0h110.986V-5.064l-6.33-2.532c-14.77-6.752-29.54-42.622-67.942-128.71-16.036-35.026-44.732-96.216-56.548-124.912h-5.908C-514.207-74.272-536.573-11.816-552.187-7.174l-5.908,2.11V0h107.188Zm17.724-105.922c-17.724,0-34.182,0-51.484-.844,11.394-32.494,26.586-70.9,43.888-110.142,10.972,21.944,35.026,71.74,49.374,102.968,1.266,2.532,2.11,5.064,3.376,7.6C-402.8-110.986-417.569-110.986-433.183-110.986Zm253.622-10.55c0,105.922,0,109.3-20.678,112.674l-24.476,3.8V0h119.426V-5.064l-24.054-3.8c-21.1-3.376-21.522-5.486-21.522-123.646,0-105.5,1.688-109.72,17.3-111.83l27.852-3.8V-253.2h-119v5.064l25.32,3.376C-179.983-242.228-179.561-239.7-179.561-121.536ZM50.007-126.6c0-81.024,1.266-106.344,5.064-119.426,6.752-.422,14.77-.844,22.788-.844,86.932,0,124.49,45.576,124.49,125.334,0,81.446-21.944,105.078-147.7,115.628C51.695-18.568,50.007-35.87,50.007-126.6Zm55.282-126.6H-23.843v5.064l24.9,3.376c19.834,2.532,20.256,5.064,20.256,122.8,0,105.922,0,108.876-22.788,113.1l-22.366,3.8V0H101.069c81.024,0,133.774-57.814,133.774-136.728C234.843-208.468,191.377-253.2,105.289-253.2ZM399.423-5.064,365.663-8.44c-14.77-1.688-22.788-7.174-22.788-21.944,0-9.706,7.6-37.558,20.256-74.272,16.88-.844,35.448-.844,54.016-.844,16.458,0,32.494,0,48.108.844,15.192,33.76,32.494,76.8,32.494,84.822,0,8.44-6.33,10.972-21.1,12.238l-29.54,2.532V0H558.095V-5.064L551.765-7.6c-14.77-6.752-29.54-42.622-67.942-128.71-16.036-35.026-44.732-96.216-56.548-124.912h-5.908C336.123-74.272,313.757-11.816,298.143-7.174l-5.908,2.11V0H399.423Zm17.724-105.922c-17.724,0-34.182,0-51.484-.844,11.394-32.494,26.586-70.9,43.888-110.142,10.972,21.944,35.026,71.74,49.374,102.968,1.266,2.532,2.11,5.064,3.376,7.6C447.531-110.986,432.761-110.986,417.147-110.986Z" transform="translate(708.096 17615)" fill="#bcbcbc" opacity="0.277"/>
  </g>
</svg>
