<svg xmlns="http://www.w3.org/2000/svg" width="18.518" height="15.041" viewBox="0 0 18.518 15.041">
  <path id="Trazado_1149" data-name="Trazado 1149" d="M-6.938-1.008A3.683,3.683,0,0,0-5.27-3.1a7.433,7.433,0,0,1-2.409.917,3.657,3.657,0,0,0-2.773-1.2,3.66,3.66,0,0,0-2.685,1.11A3.658,3.658,0,0,0-14.246.414a4.239,4.239,0,0,0,.094.87A10.575,10.575,0,0,1-18.517.114a10.761,10.761,0,0,1-3.461-2.8,3.719,3.719,0,0,0-.517,1.915,3.692,3.692,0,0,0,.458,1.809A3.783,3.783,0,0,0-20.8,2.387a3.763,3.763,0,0,1-1.716-.481v.047a3.664,3.664,0,0,0,.864,2.414,3.733,3.733,0,0,0,2.179,1.31,3.915,3.915,0,0,1-1,.129,4.791,4.791,0,0,1-.717-.059,3.707,3.707,0,0,0,1.34,1.874,3.7,3.7,0,0,0,2.209.758A7.432,7.432,0,0,1-22.353,10a8.061,8.061,0,0,1-.917-.047,10.535,10.535,0,0,0,5.827,1.7,11.086,11.086,0,0,0,3.8-.641A9.637,9.637,0,0,0-10.616,9.3,11.465,11.465,0,0,0-8.448,6.829a11.005,11.005,0,0,0,1.357-2.92A10.782,10.782,0,0,0-6.644.86c0-.219,0-.384-.012-.493A7.955,7.955,0,0,0-4.752-1.6a7.559,7.559,0,0,1-2.186.587" transform="translate(23.27 3.383)" fill="#fff"/>
</svg>
